<?xml version="1.0" encoding="UTF-8" standalone="no"?>
<!DOCTYPE svg PUBLIC "-//W3C//DTD SVG 1.0//EN" "http://www.w3.org/TR/2001/PR-SVG-20010719/DTD/svg10.dtd">
<svg width="12cm" height="10cm" viewBox="-1 -1 233 185" xmlns="http://www.w3.org/2000/svg" xmlns:xlink="http://www.w3.org/1999/xlink">
  <rect style="fill: none; fill-opacity:0; stroke-width: 2.77556e-16; stroke: #ffffff" x="0" y="0" width="232" height="184.875"/>
  <text font-size="7.90222" style="fill: #000000;text-anchor:middle;font-family:sans-serif;font-style:normal;font-weight:normal" x="112" y="12">
    <tspan x="112" y="12">Serval Keyring encryption</tspan>
  </text>
  <g>
    <rect style="fill: #ffffff" x="24" y="36" width="38" height="8"/>
    <rect style="fill: none; fill-opacity:0; stroke-width: 0.6; stroke: #000000" x="24" y="36" width="38" height="8"/>
  </g>
  <text font-size="5.64444" style="fill: #000000;text-anchor:start;font-family:sans-serif;font-style:normal;font-weight:normal" x="28" y="41.95">
    <tspan x="28" y="41.95">PKR salt</tspan>
  </text>
  <text font-size="5.64444" style="fill: #000000;text-anchor:end;font-family:sans-serif;font-style:normal;font-weight:normal" x="20" y="41.95">
    <tspan x="20" y="41.95">32</tspan>
  </text>
  <g>
    <rect style="fill: #ffffff" x="24" y="24" width="38" height="8"/>
    <rect style="fill: none; fill-opacity:0; stroke-width: 0.6; stroke: #000000" x="24" y="24" width="38" height="8"/>
  </g>
  <text font-size="5.64444" style="fill: #000000;text-anchor:start;font-family:sans-serif;font-style:normal;font-weight:normal" x="28" y="29.95">
    <tspan x="28" y="29.95">PKR PIN</tspan>
  </text>
  <text font-size="5.64444" style="fill: #000000;text-anchor:end;font-family:sans-serif;font-style:normal;font-weight:normal" x="20" y="29.95">
    <tspan x="20" y="29.95">N</tspan>
  </text>
  <g>
    <g>
      <ellipse style="fill: #ffffff" cx="100" cy="40" rx="4" ry="4"/>
      <ellipse style="fill: none; fill-opacity:0; stroke-width: 0.6; stroke: #000000" cx="100" cy="40" rx="4" ry="4"/>
      <ellipse style="fill: none; fill-opacity:0; stroke-width: 0.6; stroke: #000000" cx="100" cy="40" rx="4" ry="4"/>
    </g>
    <text font-size="4.8" style="fill: #000000;text-anchor:middle;font-family:sans-serif;font-style:normal;font-weight:normal" x="100" y="41.65">
      <tspan x="100" y="41.65">#</tspan>
    </text>
  </g>
  <g>
    <g>
      <ellipse style="fill: #ffffff" cx="82" cy="40" rx="4" ry="4"/>
      <ellipse style="fill: none; fill-opacity:0; stroke-width: 0.6; stroke: #000000" cx="82" cy="40" rx="4" ry="4"/>
      <ellipse style="fill: none; fill-opacity:0; stroke-width: 0.6; stroke: #000000" cx="82" cy="40" rx="4" ry="4"/>
    </g>
    <text font-size="4.8" style="fill: #000000;text-anchor:middle;font-family:sans-serif;font-style:normal;font-weight:normal" x="82" y="41.65">
      <tspan x="82" y="41.65">#</tspan>
    </text>
  </g>
  <g>
    <polyline style="fill: none; fill-opacity:0; stroke-width: 0.6; stroke: #000000" points="62,40 74.7,40 "/>
    <polygon style="fill: #000000" points="74.7,41.5 77.7,40 74.7,38.5 "/>
    <polygon style="fill: none; fill-opacity:0; stroke-width: 0.6; stroke: #000000" points="74.7,41.5 77.7,40 74.7,38.5 "/>
  </g>
  <g>
    <path style="fill: none; fill-opacity:0; stroke-width: 0.6; stroke-linejoin: round; stroke: #000000" d="M 72,43.5355 A 3.53553,3.53553 0 0 0 68.4645,40"/>
    <line style="fill: none; fill-opacity:0; stroke-width: 0.6; stroke-linejoin: round; stroke: #000000" x1="62" y1="40" x2="68.4645" y2="40"/>
    <path style="fill: none; fill-opacity:0; stroke-width: 0.6; stroke-linejoin: round; stroke: #000000" d="M 72,49.0074 A 2.99264,2.99264 0 0 0 74.9926,52"/>
    <line style="fill: none; fill-opacity:0; stroke-width: 0.6; stroke-linejoin: round; stroke: #000000" x1="72" y1="43.5355" x2="72" y2="49.0074"/>
    <path style="fill: none; fill-opacity:0; stroke-width: 0.6; stroke-linejoin: round; stroke: #000000" d="M 98.3383,52 A 1.6617,1.6617 0 0 0 100,50.3383"/>
    <line style="fill: none; fill-opacity:0; stroke-width: 0.6; stroke-linejoin: round; stroke: #000000" x1="74.9926" y1="52" x2="98.3383" y2="52"/>
    <line style="fill: none; fill-opacity:0; stroke-width: 0.6; stroke-linejoin: round; stroke: #000000" x1="100" y1="50.3383" x2="100" y2="47.3"/>
    <polygon style="fill: #000000" points="101.5,47.3 100,44.3 98.5,47.3 "/>
    <polygon style="fill: none; fill-opacity:0; stroke-width: 0.6; stroke: #000000" points="101.5,47.3 100,44.3 98.5,47.3 "/>
  </g>
  <g>
    <rect style="fill: #ffffff" x="24" y="56" width="38" height="8"/>
    <rect style="fill: none; fill-opacity:0; stroke-width: 0.6; stroke: #000000" x="24" y="56" width="38" height="8"/>
  </g>
  <text font-size="5.64444" style="fill: #000000;text-anchor:start;font-family:sans-serif;font-style:normal;font-weight:normal" x="28" y="61.95">
    <tspan x="28" y="61.95">Keyring PIN</tspan>
  </text>
  <text font-size="5.64444" style="fill: #000000;text-anchor:end;font-family:sans-serif;font-style:normal;font-weight:normal" x="20" y="61.95">
    <tspan x="20" y="61.95">M</tspan>
  </text>
  <g>
    <g>
      <ellipse style="fill: #ffffff" cx="116" cy="40" rx="4" ry="4"/>
      <ellipse style="fill: none; fill-opacity:0; stroke-width: 0.6; stroke: #000000" cx="116" cy="40" rx="4" ry="4"/>
      <ellipse style="fill: none; fill-opacity:0; stroke-width: 0.6; stroke: #000000" cx="116" cy="40" rx="4" ry="4"/>
    </g>
    <text font-size="4.8" style="fill: #000000;text-anchor:middle;font-family:sans-serif;font-style:normal;font-weight:normal" x="116" y="41.65">
      <tspan x="116" y="41.65">#</tspan>
    </text>
  </g>
  <g>
    <path style="fill: none; fill-opacity:0; stroke-width: 0.6; stroke-linejoin: round; stroke: #000000" d="M 112,60 A 4,4 0 0 0 116,56"/>
    <line style="fill: none; fill-opacity:0; stroke-width: 0.6; stroke-linejoin: round; stroke: #000000" x1="62" y1="60" x2="112" y2="60"/>
    <line style="fill: none; fill-opacity:0; stroke-width: 0.6; stroke-linejoin: round; stroke: #000000" x1="116" y1="56" x2="116" y2="47.3"/>
    <polygon style="fill: #000000" points="117.5,47.3 116,44.3 114.5,47.3 "/>
    <polygon style="fill: none; fill-opacity:0; stroke-width: 0.6; stroke: #000000" points="117.5,47.3 116,44.3 114.5,47.3 "/>
  </g>
  <g>
    <rect style="fill: #e6e6fa" x="132" y="32" width="44" height="16" rx="4" ry="4"/>
    <rect style="fill: none; fill-opacity:0; stroke-width: 0.6; stroke-linejoin: round; stroke: #000000" x="132" y="32" width="44" height="16" rx="4" ry="4"/>
  </g>
  <text font-size="5.64444" style="fill: #000000;text-anchor:middle;font-family:Courier 10 Pitch;font-style:normal;font-weight:700" x="154" y="38.0722">
    <tspan x="154" y="38.0722">crypto_hash</tspan>
    <tspan x="154" y="45.1278">_sha512</tspan>
  </text>
  <g>
    <line style="fill: none; fill-opacity:0; stroke-width: 0.6; stroke-linejoin: round; stroke: #000000" x1="120" y1="40" x2="128.7" y2="40"/>
    <polygon style="fill: #000000" points="128.7,41.5 131.7,40 128.7,38.5 "/>
    <polygon style="fill: none; fill-opacity:0; stroke-width: 0.6; stroke: #000000" points="128.7,41.5 131.7,40 128.7,38.5 "/>
  </g>
  <g>
    <rect style="fill: #ffffff" x="132" y="68" width="44" height="8"/>
    <rect style="fill: none; fill-opacity:0; stroke-width: 0.6; stroke: #000000" x="132" y="68" width="44" height="8"/>
  </g>
  <text font-size="5.64444" style="fill: #000000;text-anchor:start;font-family:sans-serif;font-style:normal;font-weight:normal" x="134" y="73.95">
    <tspan x="134" y="73.95">Stream key</tspan>
  </text>
  <text font-size="5.64444" style="fill: #000000;text-anchor:end;font-family:sans-serif;font-style:normal;font-weight:normal" x="132" y="73.95">
    <tspan x="132" y="73.95">32 </tspan>
  </text>
  <text font-size="5.64444" style="fill: #000000;text-anchor:end;font-family:sans-serif;font-style:normal;font-weight:normal" x="20" y="153.95">
    <tspan x="20" y="153.95">2048</tspan>
  </text>
  <g>
    <rect style="fill: #ffffff" x="24" y="148" width="38" height="8"/>
    <rect style="fill: none; fill-opacity:0; stroke-width: 0.6; stroke: #000000" x="24" y="148" width="38" height="8"/>
  </g>
  <g>
    <line style="fill: none; fill-opacity:0; stroke-width: 0.6; stroke: #000000" x1="62" y1="152" x2="74.7" y2="152"/>
    <polygon style="fill: #000000" points="74.7,153.5 77.7,152 74.7,150.5 "/>
    <polygon style="fill: none; fill-opacity:0; stroke-width: 0.6; stroke: #000000" points="74.7,153.5 77.7,152 74.7,150.5 "/>
  </g>
  <g>
    <path style="fill: none; fill-opacity:0; stroke-width: 0.6; stroke-linejoin: round; stroke: #000000" d="M 82,64 A 4,4 0 0 0 78,60"/>
    <line style="fill: none; fill-opacity:0; stroke-width: 0.6; stroke-linejoin: round; stroke: #000000" x1="62" y1="60" x2="78" y2="60"/>
    <line style="fill: none; fill-opacity:0; stroke-width: 0.6; stroke-linejoin: round; stroke: #000000" x1="82" y1="64" x2="82" y2="144.7"/>
    <polygon style="fill: #000000" points="80.5,144.7 82,147.7 83.5,144.7 "/>
    <polygon style="fill: none; fill-opacity:0; stroke-width: 0.6; stroke: #000000" points="80.5,144.7 82,147.7 83.5,144.7 "/>
  </g>
  <g>
    <path style="fill: none; fill-opacity:0; stroke-width: 0.6; stroke-linejoin: round; stroke: #000000" d="M 90,32 A 4,4 0 0 0 86,28"/>
    <line style="fill: none; fill-opacity:0; stroke-width: 0.6; stroke-linejoin: round; stroke: #000000" x1="62" y1="28" x2="86" y2="28"/>
    <path style="fill: none; fill-opacity:0; stroke-width: 0.6; stroke-linejoin: round; stroke: #000000" d="M 90,131.001 A 4,4 0 0 0 94,135.001"/>
    <line style="fill: none; fill-opacity:0; stroke-width: 0.6; stroke-linejoin: round; stroke: #000000" x1="90" y1="32" x2="90" y2="131.001"/>
    <path style="fill: none; fill-opacity:0; stroke-width: 0.6; stroke-linejoin: round; stroke: #000000" d="M 116,138.43 A 3.42911,3.42911 0 0 0 112.571,135.001"/>
    <line style="fill: none; fill-opacity:0; stroke-width: 0.6; stroke-linejoin: round; stroke: #000000" x1="94" y1="135.001" x2="112.571" y2="135.001"/>
    <line style="fill: none; fill-opacity:0; stroke-width: 0.6; stroke-linejoin: round; stroke: #000000" x1="116" y1="138.43" x2="116" y2="144.7"/>
    <polygon style="fill: #000000" points="114.5,144.7 116,147.7 117.5,144.7 "/>
    <polygon style="fill: none; fill-opacity:0; stroke-width: 0.6; stroke: #000000" points="114.5,144.7 116,147.7 117.5,144.7 "/>
  </g>
  <g>
    <rect style="fill: #e6e6fa" x="132" y="144" width="44" height="16" rx="4" ry="4"/>
    <rect style="fill: none; fill-opacity:0; stroke-width: 0.6; stroke-linejoin: round; stroke: #000000" x="132" y="144" width="44" height="16" rx="4" ry="4"/>
  </g>
  <text font-size="5.64444" style="fill: #000000;text-anchor:middle;font-family:Courier 10 Pitch;font-style:normal;font-weight:700" x="154" y="150.072">
    <tspan x="154" y="150.072">crypto_hash</tspan>
    <tspan x="154" y="157.128">_sha512</tspan>
  </text>
  <g>
    <line style="fill: none; fill-opacity:0; stroke-width: 0.6; stroke-linejoin: round; stroke: #000000" x1="120" y1="152" x2="128.7" y2="152"/>
    <polygon style="fill: #000000" points="128.7,153.5 131.7,152 128.7,150.5 "/>
    <polygon style="fill: none; fill-opacity:0; stroke-width: 0.6; stroke: #000000" points="128.7,153.5 131.7,152 128.7,150.5 "/>
  </g>
  <g>
    <rect style="fill: #ffffff" x="132" y="122" width="44" height="8"/>
    <rect style="fill: none; fill-opacity:0; stroke-width: 0.6; stroke: #000000" x="132" y="122" width="44" height="8"/>
  </g>
  <text font-size="5.64444" style="fill: #000000;text-anchor:start;font-family:sans-serif;font-style:normal;font-weight:normal" x="134" y="127.95">
    <tspan x="134" y="127.95">Stream nonce</tspan>
  </text>
  <text font-size="5.64444" style="fill: #000000;text-anchor:end;font-family:sans-serif;font-style:normal;font-weight:normal" x="132" y="127.95">
    <tspan x="132" y="127.95">8 </tspan>
  </text>
  <text font-size="5.64444" style="fill: #000000;text-anchor:start;font-family:sans-serif;font-style:normal;font-weight:normal" x="28" y="153.95">
    <tspan x="28" y="153.95">Keyring salt</tspan>
  </text>
  <g>
    <rect style="fill: #e6e6fa" x="134" y="86" width="40" height="28" rx="4" ry="4"/>
    <rect style="fill: none; fill-opacity:0; stroke-width: 0.6; stroke-linejoin: round; stroke: #000000" x="134" y="86" width="40" height="28" rx="4" ry="4"/>
  </g>
  <text font-size="5.64444" style="fill: #000000;text-anchor:middle;font-family:Courier 10 Pitch;font-style:normal;font-weight:700" x="154" y="94.5444">
    <tspan x="154" y="94.5444">crypto_</tspan>
    <tspan x="154" y="101.6">stream_</tspan>
    <tspan x="154" y="108.656">xor</tspan>
  </text>
  <g>
    <rect style="fill: #ffffff" x="24" y="92" width="34" height="16"/>
    <rect style="fill: none; fill-opacity:0; stroke-width: 0.6; stroke: #000000" x="24" y="92" width="34" height="16"/>
  </g>
  <text font-size="5.64444" style="fill: #000000;text-anchor:middle;font-family:sans-serif;font-style:normal;font-weight:normal" x="41" y="98.4222">
    <tspan x="41" y="98.4222">PKR</tspan>
    <tspan x="41" y="105.478">cleartext</tspan>
  </text>
  <text font-size="5.64444" style="fill: #000000;text-anchor:end;font-family:sans-serif;font-style:normal;font-weight:normal" x="20" y="101.95">
    <tspan x="20" y="101.95">1952</tspan>
  </text>
  <g>
    <line style="fill: none; fill-opacity:0; stroke-width: 0.6; stroke: #000000" x1="58" y1="100" x2="94.7" y2="100"/>
    <polygon style="fill: #000000" points="94.7,101.5 97.7,100 94.7,98.5 "/>
    <polygon style="fill: none; fill-opacity:0; stroke-width: 0.6; stroke: #000000" points="94.7,101.5 97.7,100 94.7,98.5 "/>
  </g>
  <g>
    <rect style="fill: #ffffff" x="188" y="92" width="32" height="16"/>
    <rect style="fill: none; fill-opacity:0; stroke-width: 0.6; stroke: #000000" x="188" y="92" width="32" height="16"/>
  </g>
  <text font-size="5.64444" style="fill: #000000;text-anchor:middle;font-family:sans-serif;font-style:normal;font-weight:normal" x="204" y="98.4222">
    <tspan x="204" y="98.4222">PKR</tspan>
    <tspan x="204" y="105.478">encrypted</tspan>
  </text>
  <g>
    <line style="fill: none; fill-opacity:0; stroke-width: 0.6; stroke: #000000" x1="174" y1="100" x2="184.7" y2="100"/>
    <polygon style="fill: #000000" points="184.7,101.5 187.7,100 184.7,98.5 "/>
    <polygon style="fill: none; fill-opacity:0; stroke-width: 0.6; stroke: #000000" points="184.7,101.5 187.7,100 184.7,98.5 "/>
  </g>
  <g>
    <line style="fill: none; fill-opacity:0; stroke-width: 0.6; stroke: #000000" x1="154" y1="76" x2="154" y2="82.7"/>
    <polygon style="fill: #000000" points="152.5,82.7 154,85.7 155.5,82.7 "/>
    <polygon style="fill: none; fill-opacity:0; stroke-width: 0.6; stroke: #000000" points="152.5,82.7 154,85.7 155.5,82.7 "/>
  </g>
  <g>
    <line style="fill: none; fill-opacity:0; stroke-width: 0.6; stroke: #000000" x1="154" y1="122" x2="154" y2="117.3"/>
    <polygon style="fill: #000000" points="155.5,117.3 154,114.3 152.5,117.3 "/>
    <polygon style="fill: none; fill-opacity:0; stroke-width: 0.6; stroke: #000000" points="155.5,117.3 154,114.3 152.5,117.3 "/>
  </g>
  <g>
    <rect style="fill: #ffffff" x="24" y="76" width="46" height="8"/>
    <rect style="fill: none; fill-opacity:0; stroke-width: 0.6; stroke: #000000" x="24" y="76" width="46" height="8"/>
  </g>
  <text font-size="5.64444" style="fill: #000000;text-anchor:start;font-family:sans-serif;font-style:normal;font-weight:normal" x="26" y="81.95">
    <tspan x="26" y="81.95">Rotation offset</tspan>
  </text>
  <g>
    <ellipse style="fill: #e6e6fa" cx="110" cy="100" rx="12" ry="12"/>
    <ellipse style="fill: none; fill-opacity:0; stroke-width: 0.6; stroke: #000000" cx="110" cy="100" rx="12" ry="12"/>
    <ellipse style="fill: none; fill-opacity:0; stroke-width: 0.6; stroke: #000000" cx="110" cy="100" rx="12" ry="12"/>
  </g>
  <g>
    <line style="fill: none; fill-opacity:0; stroke-width: 0.6; stroke: #000000" x1="122" y1="100" x2="130.7" y2="100"/>
    <polygon style="fill: #000000" points="130.7,101.5 133.7,100 130.7,98.5 "/>
    <polygon style="fill: none; fill-opacity:0; stroke-width: 0.6; stroke: #000000" points="130.7,101.5 133.7,100 130.7,98.5 "/>
  </g>
  <g>
    <path style="fill: none; fill-opacity:0; stroke-width: 0.6; stroke-linejoin: round; stroke: #000000" d="M 110,81.6617 A 1.6617,1.6617 0 0 0 108.338,80"/>
    <line style="fill: none; fill-opacity:0; stroke-width: 0.6; stroke-linejoin: round; stroke: #000000" x1="70" y1="80" x2="108.338" y2="80"/>
    <line style="fill: none; fill-opacity:0; stroke-width: 0.6; stroke-linejoin: round; stroke: #000000" x1="110" y1="81.6617" x2="110" y2="84.7"/>
    <polygon style="fill: #000000" points="108.5,84.7 110,87.7 111.5,84.7 "/>
    <polygon style="fill: none; fill-opacity:0; stroke-width: 0.6; stroke: #000000" points="108.5,84.7 110,87.7 111.5,84.7 "/>
  </g>
  <text font-size="5.64444" style="fill: #000000;text-anchor:middle;font-family:sans-serif;font-style:normal;font-weight:normal" x="110" y="98.4222">
    <tspan x="110" y="98.4222">Rotate</tspan>
    <tspan x="110" y="105.478">buffer</tspan>
  </text>
  <text font-size="5.64444" style="fill: #000000;text-anchor:end;font-family:sans-serif;font-style:normal;font-weight:normal" x="20" y="81.95">
    <tspan x="20" y="81.95">2</tspan>
  </text>
  <g>
    <path style="fill: none; fill-opacity:0; stroke-width: 0.6; stroke-linejoin: round; stroke: #000000" d="M 82,29.6617 A 1.6617,1.6617 0 0 0 80.3383,28"/>
    <line style="fill: none; fill-opacity:0; stroke-width: 0.6; stroke-linejoin: round; stroke: #000000" x1="62" y1="28" x2="80.3383" y2="28"/>
    <line style="fill: none; fill-opacity:0; stroke-width: 0.6; stroke-linejoin: round; stroke: #000000" x1="82" y1="29.6617" x2="82" y2="32.7"/>
    <polygon style="fill: #000000" points="80.5,32.7 82,35.7 83.5,32.7 "/>
    <polygon style="fill: none; fill-opacity:0; stroke-width: 0.6; stroke: #000000" points="80.5,32.7 82,35.7 83.5,32.7 "/>
  </g>
  <g>
    <line style="fill: none; fill-opacity:0; stroke-width: 0.6; stroke: #000000" x1="86" y1="40" x2="92.7" y2="40"/>
    <polygon style="fill: #000000" points="92.7,41.5 95.7,40 92.7,38.5 "/>
    <polygon style="fill: none; fill-opacity:0; stroke-width: 0.6; stroke: #000000" points="92.7,41.5 95.7,40 92.7,38.5 "/>
  </g>
  <g>
    <line style="fill: none; fill-opacity:0; stroke-width: 0.6; stroke: #000000" x1="104" y1="40" x2="108.7" y2="40"/>
    <polygon style="fill: #000000" points="108.7,41.5 111.7,40 108.7,38.5 "/>
    <polygon style="fill: none; fill-opacity:0; stroke-width: 0.6; stroke: #000000" points="108.7,41.5 111.7,40 108.7,38.5 "/>
  </g>
  <g>
    <line style="fill: none; fill-opacity:0; stroke-width: 0.6; stroke: #000000" x1="154" y1="48" x2="154" y2="64.7"/>
    <polygon style="fill: #000000" points="152.5,64.7 154,67.7 155.5,64.7 "/>
    <polygon style="fill: none; fill-opacity:0; stroke-width: 0.6; stroke: #000000" points="152.5,64.7 154,67.7 155.5,64.7 "/>
  </g>
  <g>
    <g>
      <ellipse style="fill: #ffffff" cx="100" cy="152" rx="4" ry="4"/>
      <ellipse style="fill: none; fill-opacity:0; stroke-width: 0.6; stroke: #000000" cx="100" cy="152" rx="4" ry="4"/>
      <ellipse style="fill: none; fill-opacity:0; stroke-width: 0.6; stroke: #000000" cx="100" cy="152" rx="4" ry="4"/>
    </g>
    <text font-size="4.8" style="fill: #000000;text-anchor:middle;font-family:sans-serif;font-style:normal;font-weight:normal" x="100" y="153.65">
      <tspan x="100" y="153.65">#</tspan>
    </text>
  </g>
  <g>
    <g>
      <ellipse style="fill: #ffffff" cx="82" cy="152" rx="4" ry="4"/>
      <ellipse style="fill: none; fill-opacity:0; stroke-width: 0.6; stroke: #000000" cx="82" cy="152" rx="4" ry="4"/>
      <ellipse style="fill: none; fill-opacity:0; stroke-width: 0.6; stroke: #000000" cx="82" cy="152" rx="4" ry="4"/>
    </g>
    <text font-size="4.8" style="fill: #000000;text-anchor:middle;font-family:sans-serif;font-style:normal;font-weight:normal" x="82" y="153.65">
      <tspan x="82" y="153.65">#</tspan>
    </text>
  </g>
  <g>
    <g>
      <ellipse style="fill: #ffffff" cx="116" cy="152" rx="4" ry="4"/>
      <ellipse style="fill: none; fill-opacity:0; stroke-width: 0.6; stroke: #000000" cx="116" cy="152" rx="4" ry="4"/>
      <ellipse style="fill: none; fill-opacity:0; stroke-width: 0.6; stroke: #000000" cx="116" cy="152" rx="4" ry="4"/>
    </g>
    <text font-size="4.8" style="fill: #000000;text-anchor:middle;font-family:sans-serif;font-style:normal;font-weight:normal" x="116" y="153.65">
      <tspan x="116" y="153.65">#</tspan>
    </text>
  </g>
  <g>
    <line style="fill: none; fill-opacity:0; stroke-width: 0.6; stroke: #000000" x1="86" y1="152" x2="92.7" y2="152"/>
    <polygon style="fill: #000000" points="92.7,153.5 95.7,152 92.7,150.5 "/>
    <polygon style="fill: none; fill-opacity:0; stroke-width: 0.6; stroke: #000000" points="92.7,153.5 95.7,152 92.7,150.5 "/>
  </g>
  <g>
    <line style="fill: none; fill-opacity:0; stroke-width: 0.6; stroke: #000000" x1="104" y1="152" x2="108.7" y2="152"/>
    <polygon style="fill: #000000" points="108.7,153.5 111.7,152 108.7,150.5 "/>
    <polygon style="fill: none; fill-opacity:0; stroke-width: 0.6; stroke: #000000" points="108.7,153.5 111.7,152 108.7,150.5 "/>
  </g>
  <g>
    <path style="fill: none; fill-opacity:0; stroke-width: 0.6; stroke-linejoin: round; stroke: #000000" d="M 72,155.536 A 3.53553,3.53553 0 0 0 68.4645,152"/>
    <line style="fill: none; fill-opacity:0; stroke-width: 0.6; stroke-linejoin: round; stroke: #000000" x1="62" y1="152" x2="68.4645" y2="152"/>
    <path style="fill: none; fill-opacity:0; stroke-width: 0.6; stroke-linejoin: round; stroke: #000000" d="M 72,161.007 A 2.99264,2.99264 0 0 0 74.9926,164"/>
    <line style="fill: none; fill-opacity:0; stroke-width: 0.6; stroke-linejoin: round; stroke: #000000" x1="72" y1="155.536" x2="72" y2="161.007"/>
    <path style="fill: none; fill-opacity:0; stroke-width: 0.6; stroke-linejoin: round; stroke: #000000" d="M 98.3383,164 A 1.6617,1.6617 0 0 0 100,162.338"/>
    <line style="fill: none; fill-opacity:0; stroke-width: 0.6; stroke-linejoin: round; stroke: #000000" x1="74.9926" y1="164" x2="98.3383" y2="164"/>
    <line style="fill: none; fill-opacity:0; stroke-width: 0.6; stroke-linejoin: round; stroke: #000000" x1="100" y1="162.338" x2="100" y2="159.3"/>
    <polygon style="fill: #000000" points="101.5,159.3 100,156.3 98.5,159.3 "/>
    <polygon style="fill: none; fill-opacity:0; stroke-width: 0.6; stroke: #000000" points="101.5,159.3 100,156.3 98.5,159.3 "/>
  </g>
  <g>
    <line style="fill: none; fill-opacity:0; stroke-width: 0.6; stroke: #000000" x1="154" y1="144" x2="154" y2="133.3"/>
    <polygon style="fill: #000000" points="155.5,133.3 154,130.3 152.5,133.3 "/>
    <polygon style="fill: none; fill-opacity:0; stroke-width: 0.6; stroke: #000000" points="155.5,133.3 154,130.3 152.5,133.3 "/>
  </g>
</svg>
